<?xml version="1.0" encoding="utf-8" standalone="no"?>
<!DOCTYPE svg PUBLIC "-//W3C//DTD SVG 1.1//EN"
  "http://www.w3.org/Graphics/SVG/1.1/DTD/svg11.dtd">
<svg xmlns:xlink="http://www.w3.org/1999/xlink" width="611.712pt" height="288pt" viewBox="0 0 611.712 288" xmlns="http://www.w3.org/2000/svg" version="1.1">
 <metadata>
  <rdf:RDF xmlns:dc="http://purl.org/dc/elements/1.1/" xmlns:cc="http://creativecommons.org/ns#" xmlns:rdf="http://www.w3.org/1999/02/22-rdf-syntax-ns#">
   <cc:Work>
    <dc:type rdf:resource="http://purl.org/dc/dcmitype/StillImage"/>
    <dc:date>2022-04-21T00:06:17.159307</dc:date>
    <dc:format>image/svg+xml</dc:format>
    <dc:creator>
     <cc:Agent>
      <dc:title>Matplotlib v3.5.1, https://matplotlib.org/</dc:title>
     </cc:Agent>
    </dc:creator>
   </cc:Work>
  </rdf:RDF>
 </metadata>
 <defs>
  <style type="text/css">*{stroke-linejoin: round; stroke-linecap: butt}</style>
 </defs>
 <g id="figure_1">
  <g id="patch_1">
   <path d="M 0 288 
L 611.712 288 
L 611.712 0 
L 0 0 
z
" style="fill: #ffffff"/>
  </g>
  <g id="axes_1">
   <g id="patch_2">
    <path d="M 76.464 256.32 
L 550.5408 256.32 
L 550.5408 34.56 
L 76.464 34.56 
z
" style="fill: #ffffff"/>
   </g>
   <g id="matplotlib.axis_1">
    <g id="xtick_1">
     <g id="line2d_1">
      <path d="M 98.007389 256.32 
L 98.007389 34.56 
" clip-path="url(#peb6b8372c0)" style="fill: none; stroke: #b0b0b0; stroke-width: 0.8; stroke-linecap: square"/>
     </g>
     <g id="line2d_2">
      <defs>
       <path id="m3a9c7666f3" d="M 0 0 
L 0 3.5 
" style="stroke: #000000; stroke-width: 0.8"/>
      </defs>
      <g>
       <use xlink:href="#m3a9c7666f3" x="98.007389" y="256.32" style="stroke: #000000; stroke-width: 0.8"/>
      </g>
     </g>
     <g id="text_1">
      <!-- 0.00 -->
      <g transform="translate(86.874577 270.918437)scale(0.1 -0.1)">
       <defs>
        <path id="DejaVuSans-30" d="M 2034 4250 
Q 1547 4250 1301 3770 
Q 1056 3291 1056 2328 
Q 1056 1369 1301 889 
Q 1547 409 2034 409 
Q 2525 409 2770 889 
Q 3016 1369 3016 2328 
Q 3016 3291 2770 3770 
Q 2525 4250 2034 4250 
z
M 2034 4750 
Q 2819 4750 3233 4129 
Q 3647 3509 3647 2328 
Q 3647 1150 3233 529 
Q 2819 -91 2034 -91 
Q 1250 -91 836 529 
Q 422 1150 422 2328 
Q 422 3509 836 4129 
Q 1250 4750 2034 4750 
z
" transform="scale(0.015625)"/>
        <path id="DejaVuSans-2e" d="M 684 794 
L 1344 794 
L 1344 0 
L 684 0 
L 684 794 
z
" transform="scale(0.015625)"/>
       </defs>
       <use xlink:href="#DejaVuSans-30"/>
       <use xlink:href="#DejaVuSans-2e" x="63.623047"/>
       <use xlink:href="#DejaVuSans-30" x="95.410156"/>
       <use xlink:href="#DejaVuSans-30" x="159.033203"/>
      </g>
     </g>
    </g>
    <g id="xtick_2">
     <g id="line2d_3">
      <path d="M 177.268817 256.32 
L 177.268817 34.56 
" clip-path="url(#peb6b8372c0)" style="fill: none; stroke: #b0b0b0; stroke-width: 0.8; stroke-linecap: square"/>
     </g>
     <g id="line2d_4">
      <g>
       <use xlink:href="#m3a9c7666f3" x="177.268817" y="256.32" style="stroke: #000000; stroke-width: 0.8"/>
      </g>
     </g>
     <g id="text_2">
      <!-- 0.05 -->
      <g transform="translate(166.136004 270.918437)scale(0.1 -0.1)">
       <defs>
        <path id="DejaVuSans-35" d="M 691 4666 
L 3169 4666 
L 3169 4134 
L 1269 4134 
L 1269 2991 
Q 1406 3038 1543 3061 
Q 1681 3084 1819 3084 
Q 2600 3084 3056 2656 
Q 3513 2228 3513 1497 
Q 3513 744 3044 326 
Q 2575 -91 1722 -91 
Q 1428 -91 1123 -41 
Q 819 9 494 109 
L 494 744 
Q 775 591 1075 516 
Q 1375 441 1709 441 
Q 2250 441 2565 725 
Q 2881 1009 2881 1497 
Q 2881 1984 2565 2268 
Q 2250 2553 1709 2553 
Q 1456 2553 1204 2497 
Q 953 2441 691 2322 
L 691 4666 
z
" transform="scale(0.015625)"/>
       </defs>
       <use xlink:href="#DejaVuSans-30"/>
       <use xlink:href="#DejaVuSans-2e" x="63.623047"/>
       <use xlink:href="#DejaVuSans-30" x="95.410156"/>
       <use xlink:href="#DejaVuSans-35" x="159.033203"/>
      </g>
     </g>
    </g>
    <g id="xtick_3">
     <g id="line2d_5">
      <path d="M 256.530245 256.32 
L 256.530245 34.56 
" clip-path="url(#peb6b8372c0)" style="fill: none; stroke: #b0b0b0; stroke-width: 0.8; stroke-linecap: square"/>
     </g>
     <g id="line2d_6">
      <g>
       <use xlink:href="#m3a9c7666f3" x="256.530245" y="256.32" style="stroke: #000000; stroke-width: 0.8"/>
      </g>
     </g>
     <g id="text_3">
      <!-- 0.10 -->
      <g transform="translate(245.397432 270.918437)scale(0.1 -0.1)">
       <defs>
        <path id="DejaVuSans-31" d="M 794 531 
L 1825 531 
L 1825 4091 
L 703 3866 
L 703 4441 
L 1819 4666 
L 2450 4666 
L 2450 531 
L 3481 531 
L 3481 0 
L 794 0 
L 794 531 
z
" transform="scale(0.015625)"/>
       </defs>
       <use xlink:href="#DejaVuSans-30"/>
       <use xlink:href="#DejaVuSans-2e" x="63.623047"/>
       <use xlink:href="#DejaVuSans-31" x="95.410156"/>
       <use xlink:href="#DejaVuSans-30" x="159.033203"/>
      </g>
     </g>
    </g>
    <g id="xtick_4">
     <g id="line2d_7">
      <path d="M 335.791672 256.32 
L 335.791672 34.56 
" clip-path="url(#peb6b8372c0)" style="fill: none; stroke: #b0b0b0; stroke-width: 0.8; stroke-linecap: square"/>
     </g>
     <g id="line2d_8">
      <g>
       <use xlink:href="#m3a9c7666f3" x="335.791672" y="256.32" style="stroke: #000000; stroke-width: 0.8"/>
      </g>
     </g>
     <g id="text_4">
      <!-- 0.15 -->
      <g transform="translate(324.65886 270.918437)scale(0.1 -0.1)">
       <use xlink:href="#DejaVuSans-30"/>
       <use xlink:href="#DejaVuSans-2e" x="63.623047"/>
       <use xlink:href="#DejaVuSans-31" x="95.410156"/>
       <use xlink:href="#DejaVuSans-35" x="159.033203"/>
      </g>
     </g>
    </g>
    <g id="xtick_5">
     <g id="line2d_9">
      <path d="M 415.0531 256.32 
L 415.0531 34.56 
" clip-path="url(#peb6b8372c0)" style="fill: none; stroke: #b0b0b0; stroke-width: 0.8; stroke-linecap: square"/>
     </g>
     <g id="line2d_10">
      <g>
       <use xlink:href="#m3a9c7666f3" x="415.0531" y="256.32" style="stroke: #000000; stroke-width: 0.8"/>
      </g>
     </g>
     <g id="text_5">
      <!-- 0.20 -->
      <g transform="translate(403.920288 270.918437)scale(0.1 -0.1)">
       <defs>
        <path id="DejaVuSans-32" d="M 1228 531 
L 3431 531 
L 3431 0 
L 469 0 
L 469 531 
Q 828 903 1448 1529 
Q 2069 2156 2228 2338 
Q 2531 2678 2651 2914 
Q 2772 3150 2772 3378 
Q 2772 3750 2511 3984 
Q 2250 4219 1831 4219 
Q 1534 4219 1204 4116 
Q 875 4013 500 3803 
L 500 4441 
Q 881 4594 1212 4672 
Q 1544 4750 1819 4750 
Q 2544 4750 2975 4387 
Q 3406 4025 3406 3419 
Q 3406 3131 3298 2873 
Q 3191 2616 2906 2266 
Q 2828 2175 2409 1742 
Q 1991 1309 1228 531 
z
" transform="scale(0.015625)"/>
       </defs>
       <use xlink:href="#DejaVuSans-30"/>
       <use xlink:href="#DejaVuSans-2e" x="63.623047"/>
       <use xlink:href="#DejaVuSans-32" x="95.410156"/>
       <use xlink:href="#DejaVuSans-30" x="159.033203"/>
      </g>
     </g>
    </g>
    <g id="xtick_6">
     <g id="line2d_11">
      <path d="M 494.314528 256.32 
L 494.314528 34.56 
" clip-path="url(#peb6b8372c0)" style="fill: none; stroke: #b0b0b0; stroke-width: 0.8; stroke-linecap: square"/>
     </g>
     <g id="line2d_12">
      <g>
       <use xlink:href="#m3a9c7666f3" x="494.314528" y="256.32" style="stroke: #000000; stroke-width: 0.8"/>
      </g>
     </g>
     <g id="text_6">
      <!-- 0.25 -->
      <g transform="translate(483.181715 270.918437)scale(0.1 -0.1)">
       <use xlink:href="#DejaVuSans-30"/>
       <use xlink:href="#DejaVuSans-2e" x="63.623047"/>
       <use xlink:href="#DejaVuSans-32" x="95.410156"/>
       <use xlink:href="#DejaVuSans-35" x="159.033203"/>
      </g>
     </g>
    </g>
    <g id="text_7">
     <!-- Strain ($\frac{mm}{mm}$) -->
     <g transform="translate(285.7524 285.298125)scale(0.1 -0.1)">
      <defs>
       <path id="DejaVuSans-53" d="M 3425 4513 
L 3425 3897 
Q 3066 4069 2747 4153 
Q 2428 4238 2131 4238 
Q 1616 4238 1336 4038 
Q 1056 3838 1056 3469 
Q 1056 3159 1242 3001 
Q 1428 2844 1947 2747 
L 2328 2669 
Q 3034 2534 3370 2195 
Q 3706 1856 3706 1288 
Q 3706 609 3251 259 
Q 2797 -91 1919 -91 
Q 1588 -91 1214 -16 
Q 841 59 441 206 
L 441 856 
Q 825 641 1194 531 
Q 1563 422 1919 422 
Q 2459 422 2753 634 
Q 3047 847 3047 1241 
Q 3047 1584 2836 1778 
Q 2625 1972 2144 2069 
L 1759 2144 
Q 1053 2284 737 2584 
Q 422 2884 422 3419 
Q 422 4038 858 4394 
Q 1294 4750 2059 4750 
Q 2388 4750 2728 4690 
Q 3069 4631 3425 4513 
z
" transform="scale(0.015625)"/>
       <path id="DejaVuSans-74" d="M 1172 4494 
L 1172 3500 
L 2356 3500 
L 2356 3053 
L 1172 3053 
L 1172 1153 
Q 1172 725 1289 603 
Q 1406 481 1766 481 
L 2356 481 
L 2356 0 
L 1766 0 
Q 1100 0 847 248 
Q 594 497 594 1153 
L 594 3053 
L 172 3053 
L 172 3500 
L 594 3500 
L 594 4494 
L 1172 4494 
z
" transform="scale(0.015625)"/>
       <path id="DejaVuSans-72" d="M 2631 2963 
Q 2534 3019 2420 3045 
Q 2306 3072 2169 3072 
Q 1681 3072 1420 2755 
Q 1159 2438 1159 1844 
L 1159 0 
L 581 0 
L 581 3500 
L 1159 3500 
L 1159 2956 
Q 1341 3275 1631 3429 
Q 1922 3584 2338 3584 
Q 2397 3584 2469 3576 
Q 2541 3569 2628 3553 
L 2631 2963 
z
" transform="scale(0.015625)"/>
       <path id="DejaVuSans-61" d="M 2194 1759 
Q 1497 1759 1228 1600 
Q 959 1441 959 1056 
Q 959 750 1161 570 
Q 1363 391 1709 391 
Q 2188 391 2477 730 
Q 2766 1069 2766 1631 
L 2766 1759 
L 2194 1759 
z
M 3341 1997 
L 3341 0 
L 2766 0 
L 2766 531 
Q 2569 213 2275 61 
Q 1981 -91 1556 -91 
Q 1019 -91 701 211 
Q 384 513 384 1019 
Q 384 1609 779 1909 
Q 1175 2209 1959 2209 
L 2766 2209 
L 2766 2266 
Q 2766 2663 2505 2880 
Q 2244 3097 1772 3097 
Q 1472 3097 1187 3025 
Q 903 2953 641 2809 
L 641 3341 
Q 956 3463 1253 3523 
Q 1550 3584 1831 3584 
Q 2591 3584 2966 3190 
Q 3341 2797 3341 1997 
z
" transform="scale(0.015625)"/>
       <path id="DejaVuSans-69" d="M 603 3500 
L 1178 3500 
L 1178 0 
L 603 0 
L 603 3500 
z
M 603 4863 
L 1178 4863 
L 1178 4134 
L 603 4134 
L 603 4863 
z
" transform="scale(0.015625)"/>
       <path id="DejaVuSans-6e" d="M 3513 2113 
L 3513 0 
L 2938 0 
L 2938 2094 
Q 2938 2591 2744 2837 
Q 2550 3084 2163 3084 
Q 1697 3084 1428 2787 
Q 1159 2491 1159 1978 
L 1159 0 
L 581 0 
L 581 3500 
L 1159 3500 
L 1159 2956 
Q 1366 3272 1645 3428 
Q 1925 3584 2291 3584 
Q 2894 3584 3203 3211 
Q 3513 2838 3513 2113 
z
" transform="scale(0.015625)"/>
       <path id="DejaVuSans-20" transform="scale(0.015625)"/>
       <path id="DejaVuSans-28" d="M 1984 4856 
Q 1566 4138 1362 3434 
Q 1159 2731 1159 2009 
Q 1159 1288 1364 580 
Q 1569 -128 1984 -844 
L 1484 -844 
Q 1016 -109 783 600 
Q 550 1309 550 2009 
Q 550 2706 781 3412 
Q 1013 4119 1484 4856 
L 1984 4856 
z
" transform="scale(0.015625)"/>
       <path id="DejaVuSans-Oblique-6d" d="M 5747 2113 
L 5338 0 
L 4763 0 
L 5166 2094 
Q 5191 2228 5203 2325 
Q 5216 2422 5216 2491 
Q 5216 2772 5059 2928 
Q 4903 3084 4622 3084 
Q 4203 3084 3875 2770 
Q 3547 2456 3450 1953 
L 3066 0 
L 2491 0 
L 2900 2094 
Q 2925 2209 2937 2307 
Q 2950 2406 2950 2484 
Q 2950 2769 2794 2926 
Q 2638 3084 2363 3084 
Q 1938 3084 1609 2770 
Q 1281 2456 1184 1953 
L 800 0 
L 225 0 
L 909 3500 
L 1484 3500 
L 1375 2956 
Q 1609 3263 1923 3423 
Q 2238 3584 2597 3584 
Q 2978 3584 3223 3384 
Q 3469 3184 3519 2828 
Q 3781 3197 4126 3390 
Q 4472 3584 4856 3584 
Q 5306 3584 5551 3325 
Q 5797 3066 5797 2591 
Q 5797 2488 5784 2364 
Q 5772 2241 5747 2113 
z
" transform="scale(0.015625)"/>
       <path id="DejaVuSans-29" d="M 513 4856 
L 1013 4856 
Q 1481 4119 1714 3412 
Q 1947 2706 1947 2009 
Q 1947 1309 1714 600 
Q 1481 -109 1013 -844 
L 513 -844 
Q 928 -128 1133 580 
Q 1338 1288 1338 2009 
Q 1338 2731 1133 3434 
Q 928 4138 513 4856 
z
" transform="scale(0.015625)"/>
      </defs>
      <use xlink:href="#DejaVuSans-53" transform="translate(0 0.003125)"/>
      <use xlink:href="#DejaVuSans-74" transform="translate(63.476562 0.003125)"/>
      <use xlink:href="#DejaVuSans-72" transform="translate(102.685547 0.003125)"/>
      <use xlink:href="#DejaVuSans-61" transform="translate(143.798828 0.003125)"/>
      <use xlink:href="#DejaVuSans-69" transform="translate(205.078125 0.003125)"/>
      <use xlink:href="#DejaVuSans-6e" transform="translate(232.861328 0.003125)"/>
      <use xlink:href="#DejaVuSans-20" transform="translate(296.240234 0.003125)"/>
      <use xlink:href="#DejaVuSans-28" transform="translate(328.027344 0.003125)"/>
      <use xlink:href="#DejaVuSans-Oblique-6d" transform="translate(367.041016 43.8)scale(0.7)"/>
      <use xlink:href="#DejaVuSans-Oblique-6d" transform="translate(435.229492 43.8)scale(0.7)"/>
      <use xlink:href="#DejaVuSans-Oblique-6d" transform="translate(367.041016 -26.65)scale(0.7)"/>
      <use xlink:href="#DejaVuSans-Oblique-6d" transform="translate(435.229492 -26.65)scale(0.7)"/>
      <use xlink:href="#DejaVuSans-29" transform="translate(515.917969 0.003125)"/>
      <path d="M 367.041016 18.8 
L 367.041016 25.05 
L 503.417969 25.05 
L 503.417969 18.8 
L 367.041016 18.8 
z
"/>
     </g>
    </g>
   </g>
   <g id="matplotlib.axis_2">
    <g id="ytick_1">
     <g id="line2d_13">
      <path d="M 76.464 246.262425 
L 550.5408 246.262425 
" clip-path="url(#peb6b8372c0)" style="fill: none; stroke: #b0b0b0; stroke-width: 0.8; stroke-linecap: square"/>
     </g>
     <g id="line2d_14">
      <defs>
       <path id="m261749c447" d="M 0 0 
L -3.5 0 
" style="stroke: #000000; stroke-width: 0.8"/>
      </defs>
      <g>
       <use xlink:href="#m261749c447" x="76.464" y="246.262425" style="stroke: #000000; stroke-width: 0.8"/>
      </g>
     </g>
     <g id="text_8">
      <!-- 0 -->
      <g transform="translate(63.1015 250.061644)scale(0.1 -0.1)">
       <use xlink:href="#DejaVuSans-30"/>
      </g>
     </g>
    </g>
    <g id="ytick_2">
     <g id="line2d_15">
      <path d="M 76.464 207.668222 
L 550.5408 207.668222 
" clip-path="url(#peb6b8372c0)" style="fill: none; stroke: #b0b0b0; stroke-width: 0.8; stroke-linecap: square"/>
     </g>
     <g id="line2d_16">
      <g>
       <use xlink:href="#m261749c447" x="76.464" y="207.668222" style="stroke: #000000; stroke-width: 0.8"/>
      </g>
     </g>
     <g id="text_9">
      <!-- 50 -->
      <g transform="translate(56.739 211.467441)scale(0.1 -0.1)">
       <use xlink:href="#DejaVuSans-35"/>
       <use xlink:href="#DejaVuSans-30" x="63.623047"/>
      </g>
     </g>
    </g>
    <g id="ytick_3">
     <g id="line2d_17">
      <path d="M 76.464 169.074019 
L 550.5408 169.074019 
" clip-path="url(#peb6b8372c0)" style="fill: none; stroke: #b0b0b0; stroke-width: 0.8; stroke-linecap: square"/>
     </g>
     <g id="line2d_18">
      <g>
       <use xlink:href="#m261749c447" x="76.464" y="169.074019" style="stroke: #000000; stroke-width: 0.8"/>
      </g>
     </g>
     <g id="text_10">
      <!-- 100 -->
      <g transform="translate(50.3765 172.873237)scale(0.1 -0.1)">
       <use xlink:href="#DejaVuSans-31"/>
       <use xlink:href="#DejaVuSans-30" x="63.623047"/>
       <use xlink:href="#DejaVuSans-30" x="127.246094"/>
      </g>
     </g>
    </g>
    <g id="ytick_4">
     <g id="line2d_19">
      <path d="M 76.464 130.479815 
L 550.5408 130.479815 
" clip-path="url(#peb6b8372c0)" style="fill: none; stroke: #b0b0b0; stroke-width: 0.8; stroke-linecap: square"/>
     </g>
     <g id="line2d_20">
      <g>
       <use xlink:href="#m261749c447" x="76.464" y="130.479815" style="stroke: #000000; stroke-width: 0.8"/>
      </g>
     </g>
     <g id="text_11">
      <!-- 150 -->
      <g transform="translate(50.3765 134.279034)scale(0.1 -0.1)">
       <use xlink:href="#DejaVuSans-31"/>
       <use xlink:href="#DejaVuSans-35" x="63.623047"/>
       <use xlink:href="#DejaVuSans-30" x="127.246094"/>
      </g>
     </g>
    </g>
    <g id="ytick_5">
     <g id="line2d_21">
      <path d="M 76.464 91.885612 
L 550.5408 91.885612 
" clip-path="url(#peb6b8372c0)" style="fill: none; stroke: #b0b0b0; stroke-width: 0.8; stroke-linecap: square"/>
     </g>
     <g id="line2d_22">
      <g>
       <use xlink:href="#m261749c447" x="76.464" y="91.885612" style="stroke: #000000; stroke-width: 0.8"/>
      </g>
     </g>
     <g id="text_12">
      <!-- 200 -->
      <g transform="translate(50.3765 95.684831)scale(0.1 -0.1)">
       <use xlink:href="#DejaVuSans-32"/>
       <use xlink:href="#DejaVuSans-30" x="63.623047"/>
       <use xlink:href="#DejaVuSans-30" x="127.246094"/>
      </g>
     </g>
    </g>
    <g id="ytick_6">
     <g id="line2d_23">
      <path d="M 76.464 53.291409 
L 550.5408 53.291409 
" clip-path="url(#peb6b8372c0)" style="fill: none; stroke: #b0b0b0; stroke-width: 0.8; stroke-linecap: square"/>
     </g>
     <g id="line2d_24">
      <g>
       <use xlink:href="#m261749c447" x="76.464" y="53.291409" style="stroke: #000000; stroke-width: 0.8"/>
      </g>
     </g>
     <g id="text_13">
      <!-- 250 -->
      <g transform="translate(50.3765 57.090627)scale(0.1 -0.1)">
       <use xlink:href="#DejaVuSans-32"/>
       <use xlink:href="#DejaVuSans-35" x="63.623047"/>
       <use xlink:href="#DejaVuSans-30" x="127.246094"/>
      </g>
     </g>
    </g>
    <g id="text_14">
     <!-- Stress (Mpa) -->
     <g transform="translate(44.296812 176.84625)rotate(-90)scale(0.1 -0.1)">
      <defs>
       <path id="DejaVuSans-65" d="M 3597 1894 
L 3597 1613 
L 953 1613 
Q 991 1019 1311 708 
Q 1631 397 2203 397 
Q 2534 397 2845 478 
Q 3156 559 3463 722 
L 3463 178 
Q 3153 47 2828 -22 
Q 2503 -91 2169 -91 
Q 1331 -91 842 396 
Q 353 884 353 1716 
Q 353 2575 817 3079 
Q 1281 3584 2069 3584 
Q 2775 3584 3186 3129 
Q 3597 2675 3597 1894 
z
M 3022 2063 
Q 3016 2534 2758 2815 
Q 2500 3097 2075 3097 
Q 1594 3097 1305 2825 
Q 1016 2553 972 2059 
L 3022 2063 
z
" transform="scale(0.015625)"/>
       <path id="DejaVuSans-73" d="M 2834 3397 
L 2834 2853 
Q 2591 2978 2328 3040 
Q 2066 3103 1784 3103 
Q 1356 3103 1142 2972 
Q 928 2841 928 2578 
Q 928 2378 1081 2264 
Q 1234 2150 1697 2047 
L 1894 2003 
Q 2506 1872 2764 1633 
Q 3022 1394 3022 966 
Q 3022 478 2636 193 
Q 2250 -91 1575 -91 
Q 1294 -91 989 -36 
Q 684 19 347 128 
L 347 722 
Q 666 556 975 473 
Q 1284 391 1588 391 
Q 1994 391 2212 530 
Q 2431 669 2431 922 
Q 2431 1156 2273 1281 
Q 2116 1406 1581 1522 
L 1381 1569 
Q 847 1681 609 1914 
Q 372 2147 372 2553 
Q 372 3047 722 3315 
Q 1072 3584 1716 3584 
Q 2034 3584 2315 3537 
Q 2597 3491 2834 3397 
z
" transform="scale(0.015625)"/>
       <path id="DejaVuSans-4d" d="M 628 4666 
L 1569 4666 
L 2759 1491 
L 3956 4666 
L 4897 4666 
L 4897 0 
L 4281 0 
L 4281 4097 
L 3078 897 
L 2444 897 
L 1241 4097 
L 1241 0 
L 628 0 
L 628 4666 
z
" transform="scale(0.015625)"/>
       <path id="DejaVuSans-70" d="M 1159 525 
L 1159 -1331 
L 581 -1331 
L 581 3500 
L 1159 3500 
L 1159 2969 
Q 1341 3281 1617 3432 
Q 1894 3584 2278 3584 
Q 2916 3584 3314 3078 
Q 3713 2572 3713 1747 
Q 3713 922 3314 415 
Q 2916 -91 2278 -91 
Q 1894 -91 1617 61 
Q 1341 213 1159 525 
z
M 3116 1747 
Q 3116 2381 2855 2742 
Q 2594 3103 2138 3103 
Q 1681 3103 1420 2742 
Q 1159 2381 1159 1747 
Q 1159 1113 1420 752 
Q 1681 391 2138 391 
Q 2594 391 2855 752 
Q 3116 1113 3116 1747 
z
" transform="scale(0.015625)"/>
      </defs>
      <use xlink:href="#DejaVuSans-53"/>
      <use xlink:href="#DejaVuSans-74" x="63.476562"/>
      <use xlink:href="#DejaVuSans-72" x="102.685547"/>
      <use xlink:href="#DejaVuSans-65" x="141.548828"/>
      <use xlink:href="#DejaVuSans-73" x="203.072266"/>
      <use xlink:href="#DejaVuSans-73" x="255.171875"/>
      <use xlink:href="#DejaVuSans-20" x="307.271484"/>
      <use xlink:href="#DejaVuSans-28" x="339.058594"/>
      <use xlink:href="#DejaVuSans-4d" x="378.072266"/>
      <use xlink:href="#DejaVuSans-70" x="464.351562"/>
      <use xlink:href="#DejaVuSans-61" x="527.828125"/>
      <use xlink:href="#DejaVuSans-29" x="589.107422"/>
     </g>
    </g>
   </g>
   <g id="line2d_25">
    <path d="M 98.315748 246.146608 
L 98.49343 246.1908 
L 98.012945 246.224544 
L 98.222605 246.036355 
L 98.151664 245.980008 
L 98.248866 245.858433 
L 98.676825 245.562548 
L 99.393927 245.291995 
L 103.971903 244.56846 
L 106.575005 244.098245 
L 111.119581 243.197604 
L 112.232088 243.150411 
L 113.925271 243.46908 
L 113.981829 243.634722 
L 114.456038 243.686715 
L 114.884403 243.620441 
L 115.063056 243.394949 
L 114.461151 243.225476 
L 113.477392 243.080696 
L 112.741656 242.80487 
L 112.147016 241.769274 
L 112.638352 241.465147 
L 115.784568 240.426697 
L 116.347136 240.351707 
L 116.906137 240.185817 
L 117.257318 240.080374 
L 117.666832 240.000557 
L 117.636443 240.083363 
L 117.998375 240.175313 
L 117.879824 240.357571 
L 117.742882 240.344832 
L 117.925402 240.4597 
L 117.52965 240.528989 
L 117.620207 240.450871 
L 117.767549 240.383956 
L 118.596995 240.604771 
L 118.411793 240.659093 
L 118.369625 240.724655 
L 118.181866 240.716192 
L 118.260256 240.668767 
L 118.198451 240.60727 
L 118.532102 240.642908 
L 118.486662 240.71481 
L 118.572048 240.652478 
L 118.441535 240.618893 
L 118.297354 240.64039 
L 118.440838 240.702441 
L 118.641849 240.800286 
L 118.479474 240.822871 
L 118.053599 240.74821 
L 118.081872 240.670433 
L 118.052805 240.700004 
L 118.41592 240.598424 
L 118.941275 240.863228 
L 118.92448 240.865275 
L 119.025056 240.829349 
L 118.865484 240.793125 
L 117.46976 240.932185 
L 117.435297 240.875643 
L 117.539533 240.844299 
L 116.677387 240.986371 
L 116.383502 240.882812 
L 116.738618 241.035495 
L 116.727537 241.044253 
L 116.143326 241.113677 
L 116.798809 241.100625 
L 117.004662 241.162994 
L 116.928492 241.23623 
L 116.580573 241.173492 
L 116.638121 241.096047 
L 116.606241 240.846088 
L 117.018393 240.706969 
L 116.876013 240.727659 
L 116.900443 240.828348 
L 116.839677 240.813218 
L 116.632492 240.769369 
L 116.908984 240.470658 
L 116.709529 239.983063 
L 116.807608 239.633717 
L 116.754717 239.317585 
L 116.915171 238.997627 
L 117.296445 238.706577 
L 118.107354 238.364256 
L 118.914691 237.898219 
L 120.011029 237.510556 
L 121.034345 236.886397 
L 123.869556 235.870222 
L 127.186452 234.747633 
L 128.442026 234.257193 
L 129.490291 233.7037 
L 130.303457 233.126368 
L 131.149958 232.361277 
L 135.424381 229.912705 
L 142.654819 225.508344 
L 144.551588 224.637484 
L 147.644053 222.327084 
L 150.94487 219.736032 
L 152.44405 218.466275 
L 153.965053 217.350599 
L 157.401843 215.033304 
L 159.080583 213.827672 
L 162.398168 211.143592 
L 169.967763 205.233591 
L 172.084501 203.723582 
L 174.015348 202.071545 
L 179.383822 197.078138 
L 184.29045 191.714509 
L 186.219282 189.99114 
L 192.342315 183.832964 
L 195.667187 180.657164 
L 198.626849 177.064536 
L 200.516238 175.492809 
L 202.088462 173.991163 
L 203.73105 172.580468 
L 206.253357 169.903033 
L 207.721167 168.602632 
L 209.133118 167.203168 
L 210.614236 165.535523 
L 213.704795 161.549881 
L 215.439077 159.488971 
L 217.017752 157.358424 
L 218.760931 155.353683 
L 220.710458 153.477649 
L 222.383986 151.618263 
L 224.240588 149.876982 
L 225.841949 148.218115 
L 227.363288 146.464591 
L 230.1738 142.490438 
L 232.152702 140.341783 
L 235.628075 136.108089 
L 238.999612 132.179794 
L 240.90206 130.317509 
L 242.746503 128.287727 
L 245.766263 124.445418 
L 247.263694 122.278437 
L 252.893157 115.733756 
L 257.94363 109.876203 
L 259.70636 108.241334 
L 261.098987 106.567089 
L 262.690835 104.962341 
L 265.493401 101.556434 
L 267.077412 99.78355 
L 268.709658 98.162805 
L 275.17055 92.503542 
L 276.490733 91.355898 
L 278.027428 90.353519 
L 280.695735 88.260145 
L 282.118982 87.403161 
L 283.770745 86.589846 
L 285.6194 85.821763 
L 288.825919 84.970491 
L 290.508826 84.570744 
L 293.178414 83.76165 
L 295.710611 83.03819 
L 298.569093 81.909561 
L 300.297445 81.455933 
L 308.027746 80.279422 
L 311.486181 79.719897 
L 316.466857 78.614868 
L 318.035552 78.297437 
L 319.833301 78.073708 
L 321.552843 77.727586 
L 323.079849 77.626523 
L 324.43043 77.23918 
L 327.436353 76.752681 
L 330.196163 75.913867 
L 343.471385 74.15139 
L 350.105103 72.924763 
L 357.381541 71.997173 
L 360.7392 71.724951 
L 365.228659 70.971595 
L 368.828795 70.335879 
L 378.890542 69.49749 
L 387.167069 68.481074 
L 389.061601 68.275187 
L 394.288748 68.075369 
L 395.845796 67.867383 
L 397.670114 67.490714 
L 399.600825 67.386259 
L 403.846058 66.994084 
L 407.82072 66.837109 
L 412.997083 66.458925 
L 416.933571 66.320945 
L 418.999167 66.096139 
L 424.741148 66.075378 
L 426.486065 66.008414 
L 428.035499 65.807791 
L 435.908057 65.607161 
L 441.61636 65.821709 
L 450.383332 65.532859 
L 452.75886 65.539732 
L 455.137322 65.734151 
L 458.803209 65.759714 
L 462.843735 65.812584 
L 467.589442 66.164678 
L 470.15496 66.594941 
L 472.503299 67.158145 
L 474.737708 67.905999 
L 476.867575 68.837001 
L 479.232101 70.087166 
L 483.977081 74.124386 
L 486.0046 76.970011 
L 484.698247 96.197301 
L 477.401464 138.785056 
L 472.954747 169.345457 
L 471.464472 191.292695 
L 470.795365 207.004101 
L 469.709338 226.18773 
L 469.575309 232.007637 
L 469.575309 232.007637 
" clip-path="url(#peb6b8372c0)" style="fill: none; stroke: #000000; stroke-width: 1.5; stroke-linecap: square"/>
   </g>
   <g id="line2d_26">
    <defs>
     <path id="mc2bfbf8f78" d="M -3 3 
L 3 -3 
M -3 -3 
L 3 3 
" style="stroke: #dda0dd"/>
    </defs>
    <g clip-path="url(#peb6b8372c0)">
     <use xlink:href="#mc2bfbf8f78" x="450.383332" y="65.532859" style="fill: #dda0dd; stroke: #dda0dd"/>
    </g>
   </g>
   <g id="line2d_27">
    <defs>
     <path id="m187d87e844" d="M 0 1.5 
C 0.397805 1.5 0.77937 1.341951 1.06066 1.06066 
C 1.341951 0.77937 1.5 0.397805 1.5 0 
C 1.5 -0.397805 1.341951 -0.77937 1.06066 -1.06066 
C 0.77937 -1.341951 0.397805 -1.5 0 -1.5 
C -0.397805 -1.5 -0.77937 -1.341951 -1.06066 -1.06066 
C -1.341951 -0.77937 -1.5 -0.397805 -1.5 0 
C -1.5 0.397805 -1.341951 0.77937 -1.06066 1.06066 
C -0.77937 1.341951 -0.397805 1.5 0 1.5 
z
" style="stroke: #800080"/>
    </defs>
    <g clip-path="url(#peb6b8372c0)">
     <use xlink:href="#m187d87e844" x="256.241804" y="111.750775" style="fill: #800080; stroke: #800080"/>
    </g>
   </g>
   <g id="line2d_28">
    <path d="M 116.709529 239.983063 
L 256.241804 111.750775 
" clip-path="url(#peb6b8372c0)" style="fill: none; stroke: #800080; stroke-width: 1.5; stroke-linecap: square"/>
    <defs>
     <path id="m8b1c5b829f" d="M -3 3 
L 3 -3 
M -3 -3 
L 3 3 
" style="stroke: #800080"/>
    </defs>
    <g clip-path="url(#peb6b8372c0)">
     <use xlink:href="#m8b1c5b829f" x="116.709529" y="239.983063" style="fill: #800080; stroke: #800080"/>
     <use xlink:href="#m8b1c5b829f" x="256.241804" y="111.750775" style="fill: #800080; stroke: #800080"/>
    </g>
   </g>
   <g id="line2d_29">
    <path d="M 98.565484 246.116094 
L 98.296427 246.130197 
L 98.380533 246.163744 
L 98.244552 245.974274 
L 98.058716 245.655328 
L 99.44833 245.229484 
L 103.079116 244.779175 
L 105.645746 244.753865 
L 106.579329 244.625939 
L 107.379266 244.710077 
L 113.748879 244.452055 
L 117.631931 243.855741 
L 122.487658 243.183575 
L 124.207122 243.232619 
L 125.702625 243.390074 
L 125.685018 243.423023 
L 125.729293 243.437844 
L 125.553574 243.304366 
L 125.819291 243.204682 
L 126.427927 243.10506 
L 127.418664 242.61765 
L 127.959368 242.252332 
L 127.982049 241.705238 
L 128.29652 241.492231 
L 128.394458 241.274155 
L 129.13051 241.126272 
L 130.032228 240.213141 
L 131.373589 239.662635 
L 133.45667 239.077884 
L 134.444116 238.97023 
L 137.018941 238.165693 
L 140.204232 236.587686 
L 140.998703 235.831623 
L 143.520953 234.643002 
L 144.36531 234.086707 
L 145.256832 233.700814 
L 148.584203 231.59331 
L 149.222235 231.048864 
L 150.814444 230.289542 
L 151.343913 229.74983 
L 151.664022 229.138938 
L 152.275263 228.645562 
L 154.369984 227.385767 
L 155.23401 226.788758 
L 156.253041 226.360902 
L 160.408084 223.759162 
L 161.464382 223.246275 
L 162.983973 222.037529 
L 165.694365 220.477126 
L 167.315641 219.609657 
L 168.485391 218.830333 
L 171.226274 217.363574 
L 172.661722 216.461252 
L 177.365709 213.015634 
L 178.20519 212.598887 
L 179.012608 212.013851 
L 180.296439 210.721286 
L 182.614934 209.178985 
L 184.54228 207.473573 
L 186.607475 205.874322 
L 187.41865 204.990518 
L 188.60852 204.14843 
L 190.787425 202.268819 
L 192.9 200.820605 
L 193.978192 200.092998 
L 201.7434 193.382239 
L 202.647872 192.371451 
L 204.064162 191.438934 
L 205.063237 190.395491 
L 206.013112 189.221764 
L 209.3735 185.840903 
L 210.407618 184.933808 
L 211.116745 184.017095 
L 214.762616 180.839898 
L 216.381233 179.664455 
L 217.688867 178.5733 
L 220.681818 176.347614 
L 224.276041 172.444791 
L 225.120967 172.105925 
L 225.921513 172.121042 
L 226.894036 172.39245 
L 227.615445 172.489917 
L 227.241145 172.462318 
L 227.284866 172.500519 
L 227.196206 172.768981 
L 227.541055 172.932107 
L 227.731281 172.948692 
L 227.720194 172.95688 
L 227.622299 173.120781 
L 227.64032 173.081699 
L 227.925637 173.166361 
L 227.675971 173.217365 
L 227.799179 173.230649 
L 227.815634 173.305661 
L 227.994307 173.217885 
L 228.27669 173.280249 
L 228.207461 173.316388 
L 227.744214 173.450302 
L 227.941184 173.425226 
L 227.83192 173.211602 
L 227.93438 173.502704 
L 227.891859 173.694686 
L 228.038626 173.725781 
L 228.392751 173.408879 
L 228.308972 173.402737 
L 228.090012 173.347029 
L 227.659674 173.535128 
L 228.050566 173.574264 
L 227.720282 173.585954 
L 227.762678 173.551434 
L 227.663644 173.694281 
L 228.190872 173.487536 
L 228.187974 173.593604 
L 227.602656 173.501373 
L 227.58707 173.607098 
L 227.527359 173.559099 
L 227.895389 173.644548 
L 227.850218 173.667912 
L 227.588215 173.768383 
L 227.927353 173.733717 
L 228.079109 173.711227 
L 227.599419 173.744579 
L 227.841185 173.707328 
L 227.803537 173.588395 
L 227.820167 173.667771 
L 227.504083 173.771816 
L 227.542253 173.904279 
L 227.763301 173.8968 
L 228.054053 173.598535 
L 227.860026 173.558365 
L 227.758101 173.655901 
L 227.790985 173.835344 
L 228.032619 173.96611 
L 229.004512 173.849108 
L 228.913213 173.763427 
L 228.706567 173.723512 
L 229.113141 173.833705 
L 229.113501 173.92951 
L 228.690682 173.857836 
L 228.554674 173.814623 
L 228.615129 173.802426 
L 229.025759 173.90299 
L 228.910492 173.847299 
L 229.353912 174.311436 
L 229.838723 175.161491 
L 230.502373 178.669108 
L 230.239794 181.967731 
L 229.649894 186.347001 
L 228.310115 193.430376 
L 228.174978 195.346405 
L 227.730147 195.914918 
L 227.628529 195.014077 
L 227.17814 192.445205 
L 227.142829 188.827243 
L 226.989139 184.640069 
L 226.979842 180.412827 
L 227.725499 176.732679 
L 228.836716 173.733347 
L 233.042208 166.678283 
L 234.300538 164.997991 
L 237.016326 161.932817 
L 238.283466 160.663445 
L 239.363204 159.250433 
L 240.766536 157.766977 
L 244.230701 154.370266 
L 254.436031 143.865667 
L 256.07787 141.842405 
L 257.663083 139.390579 
L 265.367817 129.387742 
L 266.872698 126.97267 
L 268.598685 124.715084 
L 270.030264 122.235264 
L 271.730609 119.714839 
L 273.384328 116.782661 
L 280.674347 105.978764 
L 282.180204 103.626162 
L 284.046051 101.415871 
L 285.590077 99.245637 
L 289.01438 94.861944 
L 291.063872 92.523991 
L 293.002632 90.051747 
L 297.058864 85.837121 
L 298.422849 84.070874 
L 300.107509 82.318127 
L 303.773407 77.256105 
L 306.76655 73.999327 
L 313.380198 69.175415 
L 317.500435 66.732749 
L 318.807804 66.10961 
L 321.933511 65.18148 
L 325.382832 64.261199 
L 328.711193 63.388345 
L 330.142156 62.841304 
L 331.878579 62.373117 
L 335.454836 61.75663 
L 337.055007 61.267482 
L 342.567057 60.188176 
L 344.448909 59.910305 
L 347.884265 59.197659 
L 357.219304 57.26866 
L 359.086446 57.019909 
L 369.591321 54.737129 
L 373.639199 53.908416 
L 375.994617 53.511454 
L 377.980368 53.405319 
L 381.844894 52.717921 
L 385.506564 51.896937 
L 391.34308 50.94103 
L 393.342474 50.920684 
L 401.695789 49.637882 
L 406.502145 49.248403 
L 411.833489 48.384757 
L 417.587413 47.694636 
L 426.183351 46.982873 
L 428.42207 46.828473 
L 430.513543 46.494661 
L 440.828149 46.045878 
L 443.096199 45.99168 
L 448.268935 45.573775 
L 453.241287 45.465694 
L 457.949618 45.185908 
L 462.207127 45.223806 
L 464.260703 44.964376 
L 466.455368 44.991529 
L 470.890374 44.848041 
L 479.987595 44.75716 
L 489.354562 44.777267 
L 491.809807 44.937303 
L 498.216882 45.074641 
L 500.756034 45.257911 
L 503.484997 45.765338 
L 505.965716 46.472952 
L 508.252475 47.39217 
L 510.562041 48.596024 
L 512.644184 50.226894 
L 514.929194 52.54109 
L 517.398872 55.721735 
L 519.934194 59.830829 
L 522.138708 69.434905 
L 516.739044 119.670529 
L 513.05048 155.796519 
L 510.728078 181.620305 
L 510.093608 200.093437 
L 510.050398 213.269637 
L 510.203102 229.464799 
L 510.286027 237.78836 
L 510.32237 241.934057 
L 510.197765 243.228408 
L 510.602541 244.051715 
L 512.3353 244.684939 
L 516.48798 245.20299 
L 527.597877 246.038562 
L 528.991855 246.07218 
L 528.991855 246.07218 
" clip-path="url(#peb6b8372c0)" style="fill: none; stroke: #000000; stroke-opacity: 0.55; stroke-width: 1.5; stroke-linecap: square"/>
   </g>
   <g id="line2d_30">
    <g clip-path="url(#peb6b8372c0)">
     <use xlink:href="#mc2bfbf8f78" x="475.634589" y="44.64" style="fill: #dda0dd; stroke: #dda0dd"/>
    </g>
   </g>
   <g id="line2d_31">
    <g clip-path="url(#peb6b8372c0)">
     <use xlink:href="#m187d87e844" x="211.116745" y="184.017095" style="fill: #800080; stroke: #800080"/>
    </g>
   </g>
   <g id="line2d_32">
    <path d="M 130.032228 240.213141 
L 211.116745 184.017095 
" clip-path="url(#peb6b8372c0)" style="fill: none; stroke: #800080; stroke-width: 1.5; stroke-linecap: square"/>
    <g clip-path="url(#peb6b8372c0)">
     <use xlink:href="#m8b1c5b829f" x="130.032228" y="240.213141" style="fill: #800080; stroke: #800080"/>
     <use xlink:href="#m8b1c5b829f" x="211.116745" y="184.017095" style="fill: #800080; stroke: #800080"/>
    </g>
   </g>
   <g id="line2d_33">
    <path d="M 98.160703 246.174254 
L 98.039141 246.227554 
L 98.036582 246.175193 
L 98.157478 246.13473 
L 98.040397 246.045667 
L 98.106717 246.088969 
L 98.18838 246.004461 
L 98.576523 245.880808 
L 100.375854 245.747611 
L 102.545533 245.441781 
L 103.747272 245.473775 
L 104.772052 245.263155 
L 105.858537 245.289935 
L 108.802353 244.836287 
L 109.934476 244.819418 
L 112.168624 244.483893 
L 116.495271 243.473118 
L 119.796149 242.414095 
L 120.556322 242.562104 
L 121.266834 242.935839 
L 122.131355 242.877422 
L 122.522816 241.648015 
L 122.415819 240.67589 
L 123.34457 239.742325 
L 124.174218 239.00214 
L 126.318063 238.228692 
L 133.004224 235.944269 
L 138.392384 234.36499 
L 141.452782 233.610618 
L 144.153415 233.035005 
L 147.755471 231.846648 
L 150.090293 230.336569 
L 151.540504 229.253231 
L 152.550837 228.738735 
L 153.608952 228.062938 
L 161.107209 224.730911 
L 164.30856 222.875409 
L 165.948726 221.85098 
L 166.790878 221.223074 
L 168.965954 219.762717 
L 169.713893 219.047982 
L 171.879781 217.680581 
L 172.685941 217.060754 
L 173.748399 215.7174 
L 174.833033 215.041595 
L 175.807703 214.056854 
L 176.348151 213.328486 
L 177.343507 212.556355 
L 178.514529 211.007338 
L 179.511938 210.183877 
L 179.69155 209.679845 
L 180.432285 208.325817 
L 181.233375 207.387284 
L 181.898065 206.415512 
L 182.555323 205.67065 
L 185.145546 203.319351 
L 187.185303 201.993177 
L 189.696588 199.642102 
L 191.318027 198.017506 
L 193.761674 196.035632 
L 196.867773 192.738222 
L 198.05605 191.620075 
L 199.121081 190.433917 
L 202.689582 187.169259 
L 204.061253 186.063628 
L 205.025671 185.054254 
L 207.193062 183.052131 
L 208.190547 181.968173 
L 209.603776 180.967244 
L 212.644629 178.528578 
L 213.737615 177.350846 
L 214.927206 176.24875 
L 216.577236 175.150078 
L 219.556406 172.87197 
L 221.164894 171.888095 
L 224.510015 169.179494 
L 226.66459 167.204308 
L 228.681611 164.916255 
L 229.932722 163.671187 
L 231.34978 162.514307 
L 232.985214 161.603888 
L 234.968915 159.667188 
L 236.827399 157.734915 
L 238.627237 155.55235 
L 241.785636 152.00694 
L 244.649846 148.744266 
L 246.855362 146.960209 
L 247.798175 146.051476 
L 250.545278 144.090767 
L 253.432018 141.178909 
L 254.259221 140.661078 
L 254.704086 140.21514 
L 255.28329 140.190877 
L 256.125795 140.479445 
L 257.119543 140.753288 
L 257.446397 140.954409 
L 257.454032 141.254806 
L 257.257601 141.438097 
L 257.714033 141.670647 
L 257.876494 141.552549 
L 257.844119 141.664477 
L 258.01416 141.796905 
L 257.818961 141.961736 
L 257.642481 141.913487 
L 257.716051 141.937904 
L 257.646176 142.041443 
L 257.699904 141.949161 
L 258.064065 141.859255 
L 258.26395 142.003745 
L 258.168767 142.038412 
L 257.720624 142.059238 
L 258.03626 142.108911 
L 257.970561 142.193717 
L 258.122335 142.150506 
L 257.681424 142.30603 
L 257.976876 142.463372 
L 257.577005 142.34521 
L 257.792212 142.395227 
L 257.634079 141.820496 
L 257.7702 140.832173 
L 257.810558 139.453442 
L 257.955586 138.372859 
L 258.257182 137.241877 
L 261.144274 133.897871 
L 262.548266 132.75779 
L 263.4013 131.630596 
L 266.026446 128.961839 
L 270.173537 125.134905 
L 271.127513 123.514765 
L 272.553495 121.797269 
L 274.170916 119.645853 
L 275.852328 117.61249 
L 277.135592 115.490682 
L 278.537793 113.643389 
L 280.150422 112.043685 
L 282.124864 109.234696 
L 284.520431 105.56563 
L 287.322319 101.388169 
L 288.947221 98.8918 
L 290.576968 96.093988 
L 296.04887 88.399661 
L 297.271288 86.092822 
L 301.309582 80.421204 
L 302.805864 78.655717 
L 306.697761 75.115426 
L 310.977784 72.233889 
L 312.704493 71.313536 
L 314.262563 70.752153 
L 315.276829 70.21082 
L 316.098512 69.547694 
L 321.144453 67.400566 
L 322.988937 66.824934 
L 326.822212 65.82735 
L 328.717657 65.31862 
L 330.533685 65.009147 
L 332.097877 64.483681 
L 334.986593 63.892634 
L 338.620506 62.979674 
L 342.727352 62.292065 
L 348.426774 61.068511 
L 350.051147 60.812695 
L 351.401867 60.460651 
L 355.882886 59.661075 
L 358.018392 59.342239 
L 362.204019 58.471704 
L 370.699995 56.673896 
L 372.483438 56.507487 
L 381.257647 54.781141 
L 384.812838 54.270464 
L 396.513677 52.597372 
L 400.540451 51.853536 
L 405.174382 51.423999 
L 407.408483 51.122615 
L 414.09964 50.655255 
L 416.364739 50.279171 
L 422.453629 49.702675 
L 424.423933 49.44044 
L 428.690381 49.090582 
L 433.085394 48.776073 
L 437.717675 48.657072 
L 442.222077 48.327051 
L 444.540212 48.422203 
L 452.05849 47.878003 
L 457.483121 47.68438 
L 459.753251 47.861642 
L 472.09625 47.251558 
L 479.935161 47.363102 
L 484.070516 47.386651 
L 493.475775 47.687242 
L 497.277396 48.427759 
L 499.277378 48.955627 
L 501.246535 49.923432 
L 503.516073 51.263443 
L 505.602779 52.724939 
L 507.868044 54.663206 
L 510.014045 57.443746 
L 512.293467 61.31132 
L 513.410029 87.41532 
L 516.364929 132.448035 
L 519.721066 204.374842 
L 520.144354 216.284538 
L 520.501212 234.96108 
L 520.322769 238.100687 
L 520.415899 240.312885 
L 520.415899 240.312885 
" clip-path="url(#peb6b8372c0)" style="fill: none; stroke: #000000; stroke-opacity: 0.4; stroke-width: 1.5; stroke-linecap: square"/>
   </g>
   <g id="line2d_34">
    <g clip-path="url(#peb6b8372c0)">
     <use xlink:href="#mc2bfbf8f78" x="472.09625" y="47.251558" style="fill: #dda0dd; stroke: #dda0dd"/>
    </g>
   </g>
   <g id="line2d_35">
    <g clip-path="url(#peb6b8372c0)">
     <use xlink:href="#m187d87e844" x="214.927206" y="176.24875" style="fill: #800080; stroke: #800080"/>
    </g>
   </g>
   <g id="line2d_36">
    <path d="M 122.312085 242.336606 
L 214.927206 176.24875 
" clip-path="url(#peb6b8372c0)" style="fill: none; stroke: #800080; stroke-width: 1.5; stroke-linecap: square"/>
    <g clip-path="url(#peb6b8372c0)">
     <use xlink:href="#m8b1c5b829f" x="122.312085" y="242.336606" style="fill: #800080; stroke: #800080"/>
     <use xlink:href="#m8b1c5b829f" x="214.927206" y="176.24875" style="fill: #800080; stroke: #800080"/>
    </g>
   </g>
   <g id="patch_3">
    <path d="M 76.464 256.32 
L 76.464 34.56 
" style="fill: none; stroke: #000000; stroke-width: 0.8; stroke-linejoin: miter; stroke-linecap: square"/>
   </g>
   <g id="patch_4">
    <path d="M 550.5408 256.32 
L 550.5408 34.56 
" style="fill: none; stroke: #000000; stroke-width: 0.8; stroke-linejoin: miter; stroke-linecap: square"/>
   </g>
   <g id="patch_5">
    <path d="M 76.464 256.32 
L 550.5408 256.32 
" style="fill: none; stroke: #000000; stroke-width: 0.8; stroke-linejoin: miter; stroke-linecap: square"/>
   </g>
   <g id="patch_6">
    <path d="M 76.464 34.56 
L 550.5408 34.56 
" style="fill: none; stroke: #000000; stroke-width: 0.8; stroke-linejoin: miter; stroke-linecap: square"/>
   </g>
   <g id="text_15">
    <!-- Stress Strain Curves for 6061Aluminum AR -->
    <g transform="translate(184.602712 28.56)scale(0.12 -0.12)">
     <defs>
      <path id="DejaVuSans-43" d="M 4122 4306 
L 4122 3641 
Q 3803 3938 3442 4084 
Q 3081 4231 2675 4231 
Q 1875 4231 1450 3742 
Q 1025 3253 1025 2328 
Q 1025 1406 1450 917 
Q 1875 428 2675 428 
Q 3081 428 3442 575 
Q 3803 722 4122 1019 
L 4122 359 
Q 3791 134 3420 21 
Q 3050 -91 2638 -91 
Q 1578 -91 968 557 
Q 359 1206 359 2328 
Q 359 3453 968 4101 
Q 1578 4750 2638 4750 
Q 3056 4750 3426 4639 
Q 3797 4528 4122 4306 
z
" transform="scale(0.015625)"/>
      <path id="DejaVuSans-75" d="M 544 1381 
L 544 3500 
L 1119 3500 
L 1119 1403 
Q 1119 906 1312 657 
Q 1506 409 1894 409 
Q 2359 409 2629 706 
Q 2900 1003 2900 1516 
L 2900 3500 
L 3475 3500 
L 3475 0 
L 2900 0 
L 2900 538 
Q 2691 219 2414 64 
Q 2138 -91 1772 -91 
Q 1169 -91 856 284 
Q 544 659 544 1381 
z
M 1991 3584 
L 1991 3584 
z
" transform="scale(0.015625)"/>
      <path id="DejaVuSans-76" d="M 191 3500 
L 800 3500 
L 1894 563 
L 2988 3500 
L 3597 3500 
L 2284 0 
L 1503 0 
L 191 3500 
z
" transform="scale(0.015625)"/>
      <path id="DejaVuSans-66" d="M 2375 4863 
L 2375 4384 
L 1825 4384 
Q 1516 4384 1395 4259 
Q 1275 4134 1275 3809 
L 1275 3500 
L 2222 3500 
L 2222 3053 
L 1275 3053 
L 1275 0 
L 697 0 
L 697 3053 
L 147 3053 
L 147 3500 
L 697 3500 
L 697 3744 
Q 697 4328 969 4595 
Q 1241 4863 1831 4863 
L 2375 4863 
z
" transform="scale(0.015625)"/>
      <path id="DejaVuSans-6f" d="M 1959 3097 
Q 1497 3097 1228 2736 
Q 959 2375 959 1747 
Q 959 1119 1226 758 
Q 1494 397 1959 397 
Q 2419 397 2687 759 
Q 2956 1122 2956 1747 
Q 2956 2369 2687 2733 
Q 2419 3097 1959 3097 
z
M 1959 3584 
Q 2709 3584 3137 3096 
Q 3566 2609 3566 1747 
Q 3566 888 3137 398 
Q 2709 -91 1959 -91 
Q 1206 -91 779 398 
Q 353 888 353 1747 
Q 353 2609 779 3096 
Q 1206 3584 1959 3584 
z
" transform="scale(0.015625)"/>
      <path id="DejaVuSans-36" d="M 2113 2584 
Q 1688 2584 1439 2293 
Q 1191 2003 1191 1497 
Q 1191 994 1439 701 
Q 1688 409 2113 409 
Q 2538 409 2786 701 
Q 3034 994 3034 1497 
Q 3034 2003 2786 2293 
Q 2538 2584 2113 2584 
z
M 3366 4563 
L 3366 3988 
Q 3128 4100 2886 4159 
Q 2644 4219 2406 4219 
Q 1781 4219 1451 3797 
Q 1122 3375 1075 2522 
Q 1259 2794 1537 2939 
Q 1816 3084 2150 3084 
Q 2853 3084 3261 2657 
Q 3669 2231 3669 1497 
Q 3669 778 3244 343 
Q 2819 -91 2113 -91 
Q 1303 -91 875 529 
Q 447 1150 447 2328 
Q 447 3434 972 4092 
Q 1497 4750 2381 4750 
Q 2619 4750 2861 4703 
Q 3103 4656 3366 4563 
z
" transform="scale(0.015625)"/>
      <path id="DejaVuSans-41" d="M 2188 4044 
L 1331 1722 
L 3047 1722 
L 2188 4044 
z
M 1831 4666 
L 2547 4666 
L 4325 0 
L 3669 0 
L 3244 1197 
L 1141 1197 
L 716 0 
L 50 0 
L 1831 4666 
z
" transform="scale(0.015625)"/>
      <path id="DejaVuSans-6c" d="M 603 4863 
L 1178 4863 
L 1178 0 
L 603 0 
L 603 4863 
z
" transform="scale(0.015625)"/>
      <path id="DejaVuSans-6d" d="M 3328 2828 
Q 3544 3216 3844 3400 
Q 4144 3584 4550 3584 
Q 5097 3584 5394 3201 
Q 5691 2819 5691 2113 
L 5691 0 
L 5113 0 
L 5113 2094 
Q 5113 2597 4934 2840 
Q 4756 3084 4391 3084 
Q 3944 3084 3684 2787 
Q 3425 2491 3425 1978 
L 3425 0 
L 2847 0 
L 2847 2094 
Q 2847 2600 2669 2842 
Q 2491 3084 2119 3084 
Q 1678 3084 1418 2786 
Q 1159 2488 1159 1978 
L 1159 0 
L 581 0 
L 581 3500 
L 1159 3500 
L 1159 2956 
Q 1356 3278 1631 3431 
Q 1906 3584 2284 3584 
Q 2666 3584 2933 3390 
Q 3200 3197 3328 2828 
z
" transform="scale(0.015625)"/>
      <path id="DejaVuSans-52" d="M 2841 2188 
Q 3044 2119 3236 1894 
Q 3428 1669 3622 1275 
L 4263 0 
L 3584 0 
L 2988 1197 
Q 2756 1666 2539 1819 
Q 2322 1972 1947 1972 
L 1259 1972 
L 1259 0 
L 628 0 
L 628 4666 
L 2053 4666 
Q 2853 4666 3247 4331 
Q 3641 3997 3641 3322 
Q 3641 2881 3436 2590 
Q 3231 2300 2841 2188 
z
M 1259 4147 
L 1259 2491 
L 2053 2491 
Q 2509 2491 2742 2702 
Q 2975 2913 2975 3322 
Q 2975 3731 2742 3939 
Q 2509 4147 2053 4147 
L 1259 4147 
z
" transform="scale(0.015625)"/>
     </defs>
     <use xlink:href="#DejaVuSans-53"/>
     <use xlink:href="#DejaVuSans-74" x="63.476562"/>
     <use xlink:href="#DejaVuSans-72" x="102.685547"/>
     <use xlink:href="#DejaVuSans-65" x="141.548828"/>
     <use xlink:href="#DejaVuSans-73" x="203.072266"/>
     <use xlink:href="#DejaVuSans-73" x="255.171875"/>
     <use xlink:href="#DejaVuSans-20" x="307.271484"/>
     <use xlink:href="#DejaVuSans-53" x="339.058594"/>
     <use xlink:href="#DejaVuSans-74" x="402.535156"/>
     <use xlink:href="#DejaVuSans-72" x="441.744141"/>
     <use xlink:href="#DejaVuSans-61" x="482.857422"/>
     <use xlink:href="#DejaVuSans-69" x="544.136719"/>
     <use xlink:href="#DejaVuSans-6e" x="571.919922"/>
     <use xlink:href="#DejaVuSans-20" x="635.298828"/>
     <use xlink:href="#DejaVuSans-43" x="667.085938"/>
     <use xlink:href="#DejaVuSans-75" x="736.910156"/>
     <use xlink:href="#DejaVuSans-72" x="800.289062"/>
     <use xlink:href="#DejaVuSans-76" x="841.402344"/>
     <use xlink:href="#DejaVuSans-65" x="900.582031"/>
     <use xlink:href="#DejaVuSans-73" x="962.105469"/>
     <use xlink:href="#DejaVuSans-20" x="1014.205078"/>
     <use xlink:href="#DejaVuSans-66" x="1045.992188"/>
     <use xlink:href="#DejaVuSans-6f" x="1081.197266"/>
     <use xlink:href="#DejaVuSans-72" x="1142.378906"/>
     <use xlink:href="#DejaVuSans-20" x="1183.492188"/>
     <use xlink:href="#DejaVuSans-36" x="1215.279297"/>
     <use xlink:href="#DejaVuSans-30" x="1278.902344"/>
     <use xlink:href="#DejaVuSans-36" x="1342.525391"/>
     <use xlink:href="#DejaVuSans-31" x="1406.148438"/>
     <use xlink:href="#DejaVuSans-41" x="1469.771484"/>
     <use xlink:href="#DejaVuSans-6c" x="1538.179688"/>
     <use xlink:href="#DejaVuSans-75" x="1565.962891"/>
     <use xlink:href="#DejaVuSans-6d" x="1629.341797"/>
     <use xlink:href="#DejaVuSans-69" x="1726.753906"/>
     <use xlink:href="#DejaVuSans-6e" x="1754.537109"/>
     <use xlink:href="#DejaVuSans-75" x="1817.916016"/>
     <use xlink:href="#DejaVuSans-6d" x="1881.294922"/>
     <use xlink:href="#DejaVuSans-20" x="1978.707031"/>
     <use xlink:href="#DejaVuSans-41" x="2010.494141"/>
     <use xlink:href="#DejaVuSans-52" x="2078.902344"/>
    </g>
   </g>
   <g id="legend_1">
    <g id="patch_7">
     <path d="M 83.464 130.62875 
L 218.465563 130.62875 
Q 220.465563 130.62875 220.465563 128.62875 
L 220.465563 41.56 
Q 220.465563 39.56 218.465563 39.56 
L 83.464 39.56 
Q 81.464 39.56 81.464 41.56 
L 81.464 128.62875 
Q 81.464 130.62875 83.464 130.62875 
z
" style="fill: #ffffff; opacity: 0.8; stroke: #cccccc; stroke-linejoin: miter"/>
    </g>
    <g id="line2d_37">
     <path d="M 85.464 47.658438 
L 95.464 47.658438 
L 105.464 47.658438 
" style="fill: none; stroke: #000000; stroke-width: 1.5; stroke-linecap: square"/>
    </g>
    <g id="text_16">
     <!-- T1 -->
     <g transform="translate(113.464 51.158438)scale(0.1 -0.1)">
      <defs>
       <path id="DejaVuSans-54" d="M -19 4666 
L 3928 4666 
L 3928 4134 
L 2272 4134 
L 2272 0 
L 1638 0 
L 1638 4134 
L -19 4134 
L -19 4666 
z
" transform="scale(0.015625)"/>
      </defs>
      <use xlink:href="#DejaVuSans-54"/>
      <use xlink:href="#DejaVuSans-31" x="61.083984"/>
     </g>
    </g>
    <g id="line2d_38">
     <path d="M 85.464 62.336563 
L 95.464 62.336563 
L 105.464 62.336563 
" style="fill: none; stroke: #000000; stroke-opacity: 0.55; stroke-width: 1.5; stroke-linecap: square"/>
    </g>
    <g id="text_17">
     <!-- T2 -->
     <g style="opacity: 0.55" transform="translate(113.464 65.836563)scale(0.1 -0.1)">
      <use xlink:href="#DejaVuSans-54"/>
      <use xlink:href="#DejaVuSans-32" x="61.083984"/>
     </g>
    </g>
    <g id="line2d_39">
     <path d="M 85.464 77.014688 
L 95.464 77.014688 
L 105.464 77.014688 
" style="fill: none; stroke: #000000; stroke-opacity: 0.4; stroke-width: 1.5; stroke-linecap: square"/>
    </g>
    <g id="text_18">
     <!-- T3 -->
     <g style="opacity: 0.4" transform="translate(113.464 80.514688)scale(0.1 -0.1)">
      <defs>
       <path id="DejaVuSans-33" d="M 2597 2516 
Q 3050 2419 3304 2112 
Q 3559 1806 3559 1356 
Q 3559 666 3084 287 
Q 2609 -91 1734 -91 
Q 1441 -91 1130 -33 
Q 819 25 488 141 
L 488 750 
Q 750 597 1062 519 
Q 1375 441 1716 441 
Q 2309 441 2620 675 
Q 2931 909 2931 1356 
Q 2931 1769 2642 2001 
Q 2353 2234 1838 2234 
L 1294 2234 
L 1294 2753 
L 1863 2753 
Q 2328 2753 2575 2939 
Q 2822 3125 2822 3475 
Q 2822 3834 2567 4026 
Q 2313 4219 1838 4219 
Q 1578 4219 1281 4162 
Q 984 4106 628 3988 
L 628 4550 
Q 988 4650 1302 4700 
Q 1616 4750 1894 4750 
Q 2613 4750 3031 4423 
Q 3450 4097 3450 3541 
Q 3450 3153 3228 2886 
Q 3006 2619 2597 2516 
z
" transform="scale(0.015625)"/>
      </defs>
      <use xlink:href="#DejaVuSans-54"/>
      <use xlink:href="#DejaVuSans-33" x="61.083984"/>
     </g>
    </g>
    <g id="line2d_40">
     <g>
      <use xlink:href="#mc2bfbf8f78" x="95.464" y="91.692813" style="fill: #dda0dd; stroke: #dda0dd"/>
     </g>
    </g>
    <g id="text_19">
     <!-- Ult Tensile -->
     <g transform="translate(113.464 95.192813)scale(0.1 -0.1)">
      <defs>
       <path id="DejaVuSans-55" d="M 556 4666 
L 1191 4666 
L 1191 1831 
Q 1191 1081 1462 751 
Q 1734 422 2344 422 
Q 2950 422 3222 751 
Q 3494 1081 3494 1831 
L 3494 4666 
L 4128 4666 
L 4128 1753 
Q 4128 841 3676 375 
Q 3225 -91 2344 -91 
Q 1459 -91 1007 375 
Q 556 841 556 1753 
L 556 4666 
z
" transform="scale(0.015625)"/>
      </defs>
      <use xlink:href="#DejaVuSans-55"/>
      <use xlink:href="#DejaVuSans-6c" x="73.193359"/>
      <use xlink:href="#DejaVuSans-74" x="100.976562"/>
      <use xlink:href="#DejaVuSans-20" x="140.185547"/>
      <use xlink:href="#DejaVuSans-54" x="171.972656"/>
      <use xlink:href="#DejaVuSans-65" x="216.056641"/>
      <use xlink:href="#DejaVuSans-6e" x="277.580078"/>
      <use xlink:href="#DejaVuSans-73" x="340.958984"/>
      <use xlink:href="#DejaVuSans-69" x="393.058594"/>
      <use xlink:href="#DejaVuSans-6c" x="420.841797"/>
      <use xlink:href="#DejaVuSans-65" x="448.625"/>
     </g>
    </g>
    <g id="line2d_41">
     <g>
      <use xlink:href="#m187d87e844" x="95.464" y="106.370938" style="fill: #800080; stroke: #800080"/>
     </g>
    </g>
    <g id="text_20">
     <!-- Yeild Strength -->
     <g transform="translate(113.464 109.870938)scale(0.1 -0.1)">
      <defs>
       <path id="DejaVuSans-59" d="M -13 4666 
L 666 4666 
L 1959 2747 
L 3244 4666 
L 3922 4666 
L 2272 2222 
L 2272 0 
L 1638 0 
L 1638 2222 
L -13 4666 
z
" transform="scale(0.015625)"/>
       <path id="DejaVuSans-64" d="M 2906 2969 
L 2906 4863 
L 3481 4863 
L 3481 0 
L 2906 0 
L 2906 525 
Q 2725 213 2448 61 
Q 2172 -91 1784 -91 
Q 1150 -91 751 415 
Q 353 922 353 1747 
Q 353 2572 751 3078 
Q 1150 3584 1784 3584 
Q 2172 3584 2448 3432 
Q 2725 3281 2906 2969 
z
M 947 1747 
Q 947 1113 1208 752 
Q 1469 391 1925 391 
Q 2381 391 2643 752 
Q 2906 1113 2906 1747 
Q 2906 2381 2643 2742 
Q 2381 3103 1925 3103 
Q 1469 3103 1208 2742 
Q 947 2381 947 1747 
z
" transform="scale(0.015625)"/>
       <path id="DejaVuSans-67" d="M 2906 1791 
Q 2906 2416 2648 2759 
Q 2391 3103 1925 3103 
Q 1463 3103 1205 2759 
Q 947 2416 947 1791 
Q 947 1169 1205 825 
Q 1463 481 1925 481 
Q 2391 481 2648 825 
Q 2906 1169 2906 1791 
z
M 3481 434 
Q 3481 -459 3084 -895 
Q 2688 -1331 1869 -1331 
Q 1566 -1331 1297 -1286 
Q 1028 -1241 775 -1147 
L 775 -588 
Q 1028 -725 1275 -790 
Q 1522 -856 1778 -856 
Q 2344 -856 2625 -561 
Q 2906 -266 2906 331 
L 2906 616 
Q 2728 306 2450 153 
Q 2172 0 1784 0 
Q 1141 0 747 490 
Q 353 981 353 1791 
Q 353 2603 747 3093 
Q 1141 3584 1784 3584 
Q 2172 3584 2450 3431 
Q 2728 3278 2906 2969 
L 2906 3500 
L 3481 3500 
L 3481 434 
z
" transform="scale(0.015625)"/>
       <path id="DejaVuSans-68" d="M 3513 2113 
L 3513 0 
L 2938 0 
L 2938 2094 
Q 2938 2591 2744 2837 
Q 2550 3084 2163 3084 
Q 1697 3084 1428 2787 
Q 1159 2491 1159 1978 
L 1159 0 
L 581 0 
L 581 4863 
L 1159 4863 
L 1159 2956 
Q 1366 3272 1645 3428 
Q 1925 3584 2291 3584 
Q 2894 3584 3203 3211 
Q 3513 2838 3513 2113 
z
" transform="scale(0.015625)"/>
      </defs>
      <use xlink:href="#DejaVuSans-59"/>
      <use xlink:href="#DejaVuSans-65" x="47.833984"/>
      <use xlink:href="#DejaVuSans-69" x="109.357422"/>
      <use xlink:href="#DejaVuSans-6c" x="137.140625"/>
      <use xlink:href="#DejaVuSans-64" x="164.923828"/>
      <use xlink:href="#DejaVuSans-20" x="228.400391"/>
      <use xlink:href="#DejaVuSans-53" x="260.1875"/>
      <use xlink:href="#DejaVuSans-74" x="323.664062"/>
      <use xlink:href="#DejaVuSans-72" x="362.873047"/>
      <use xlink:href="#DejaVuSans-65" x="401.736328"/>
      <use xlink:href="#DejaVuSans-6e" x="463.259766"/>
      <use xlink:href="#DejaVuSans-67" x="526.638672"/>
      <use xlink:href="#DejaVuSans-74" x="590.115234"/>
      <use xlink:href="#DejaVuSans-68" x="629.324219"/>
     </g>
    </g>
    <g id="line2d_42">
     <path d="M 85.464 121.049063 
L 95.464 121.049063 
L 105.464 121.049063 
" style="fill: none; stroke: #800080; stroke-width: 1.5; stroke-linecap: square"/>
     <g>
      <use xlink:href="#m8b1c5b829f" x="95.464" y="121.049063" style="fill: #800080; stroke: #800080"/>
     </g>
    </g>
    <g id="text_21">
     <!-- Modulus of Elasticity -->
     <g transform="translate(113.464 124.549063)scale(0.1 -0.1)">
      <defs>
       <path id="DejaVuSans-45" d="M 628 4666 
L 3578 4666 
L 3578 4134 
L 1259 4134 
L 1259 2753 
L 3481 2753 
L 3481 2222 
L 1259 2222 
L 1259 531 
L 3634 531 
L 3634 0 
L 628 0 
L 628 4666 
z
" transform="scale(0.015625)"/>
       <path id="DejaVuSans-63" d="M 3122 3366 
L 3122 2828 
Q 2878 2963 2633 3030 
Q 2388 3097 2138 3097 
Q 1578 3097 1268 2742 
Q 959 2388 959 1747 
Q 959 1106 1268 751 
Q 1578 397 2138 397 
Q 2388 397 2633 464 
Q 2878 531 3122 666 
L 3122 134 
Q 2881 22 2623 -34 
Q 2366 -91 2075 -91 
Q 1284 -91 818 406 
Q 353 903 353 1747 
Q 353 2603 823 3093 
Q 1294 3584 2113 3584 
Q 2378 3584 2631 3529 
Q 2884 3475 3122 3366 
z
" transform="scale(0.015625)"/>
       <path id="DejaVuSans-79" d="M 2059 -325 
Q 1816 -950 1584 -1140 
Q 1353 -1331 966 -1331 
L 506 -1331 
L 506 -850 
L 844 -850 
Q 1081 -850 1212 -737 
Q 1344 -625 1503 -206 
L 1606 56 
L 191 3500 
L 800 3500 
L 1894 763 
L 2988 3500 
L 3597 3500 
L 2059 -325 
z
" transform="scale(0.015625)"/>
      </defs>
      <use xlink:href="#DejaVuSans-4d"/>
      <use xlink:href="#DejaVuSans-6f" x="86.279297"/>
      <use xlink:href="#DejaVuSans-64" x="147.460938"/>
      <use xlink:href="#DejaVuSans-75" x="210.9375"/>
      <use xlink:href="#DejaVuSans-6c" x="274.316406"/>
      <use xlink:href="#DejaVuSans-75" x="302.099609"/>
      <use xlink:href="#DejaVuSans-73" x="365.478516"/>
      <use xlink:href="#DejaVuSans-20" x="417.578125"/>
      <use xlink:href="#DejaVuSans-6f" x="449.365234"/>
      <use xlink:href="#DejaVuSans-66" x="510.546875"/>
      <use xlink:href="#DejaVuSans-20" x="545.751953"/>
      <use xlink:href="#DejaVuSans-45" x="577.539062"/>
      <use xlink:href="#DejaVuSans-6c" x="640.722656"/>
      <use xlink:href="#DejaVuSans-61" x="668.505859"/>
      <use xlink:href="#DejaVuSans-73" x="729.785156"/>
      <use xlink:href="#DejaVuSans-74" x="781.884766"/>
      <use xlink:href="#DejaVuSans-69" x="821.09375"/>
      <use xlink:href="#DejaVuSans-63" x="848.876953"/>
      <use xlink:href="#DejaVuSans-69" x="903.857422"/>
      <use xlink:href="#DejaVuSans-74" x="931.640625"/>
      <use xlink:href="#DejaVuSans-79" x="970.849609"/>
     </g>
    </g>
   </g>
  </g>
 </g>
 <defs>
  <clipPath id="peb6b8372c0">
   <rect x="76.464" y="34.56" width="474.0768" height="221.76"/>
  </clipPath>
 </defs>
</svg>
